<svg version="1.1" xmlns="http://www.w3.org/2000/svg" xmlns:xlink="http://www.w3.org/1999/xlink" width="307.0209" height="219.12565" viewBox="0,0,307.0209,219.12565"><defs><linearGradient x1="125.80158" y1="136.85896" x2="125.80158" y2="141.85896" gradientUnits="userSpaceOnUse" id="color-1"><stop offset="0" stop-color="#f37fcf"/><stop offset="1" stop-color="#f871b4"/></linearGradient><linearGradient x1="127.80158" y1="125.9304" x2="127.80158" y2="153.64468" gradientUnits="userSpaceOnUse" id="color-2"><stop offset="0" stop-color="#ed94f5"/><stop offset="1" stop-color="#ff5a8a"/></linearGradient><linearGradient x1="116.5873" y1="111.9304" x2="116.5873" y2="152.50183" gradientUnits="userSpaceOnUse" id="color-3"><stop offset="0" stop-color="#eb99ff"/><stop offset="1" stop-color="#ff5a8a"/></linearGradient></defs><g transform="translate(-86.50601,-70.43757)"><g data-paper-data="{&quot;isPaintingLayer&quot;:true}" fill-rule="nonzero" stroke-linejoin="miter" stroke-miterlimit="10" stroke-dasharray="" stroke-dashoffset="0" style="mix-blend-mode: normal"><path d="M90.17897,285.20873c-3.86821,-3.97375 -3.66667,-10.26427 -3.66667,-10.26427v-190.11111c0,0 -0.32329,-6.98704 3.66667,-10.93094c3.98996,-3.9439 10.87658,-3.44444 10.87658,-3.44444h278.05556c0,0 6.31328,0.23982 10.26547,4.22222c3.95219,3.9824 4.11111,10.26426 4.11111,10.26426v190.22223c0,0 0.64907,6.97942 -3.33333,10.93095c-3.9824,3.95153 -11.15436,3.44444 -11.15436,3.44444h-278.27778c0,0 -6.67504,-0.35959 -10.54325,-4.33333z" fill="#ffffff" stroke="#ffffff" stroke-width="0" stroke-linecap="butt"/><text transform="translate(145.61668,112.18878) scale(0.20958,0.20958)" font-size="40" xml:space="preserve" fill="#000000" fill-rule="nonzero" stroke="#ffffff" stroke-width="0" stroke-linecap="butt" stroke-linejoin="miter" stroke-miterlimit="10" stroke-dasharray="" stroke-dashoffset="0" font-family="Sans Serif" font-weight="normal" text-anchor="start" style="mix-blend-mode: normal"><tspan x="0" dy="0">InterApp Driver - Tier 3</tspan><tspan x="0" dy="48px">Version 2.0</tspan><tspan x="0" dy="48px">OS: Generic</tspan><tspan x="0" dy="48px">Build from DD.MM.YYYY</tspan></text><text transform="translate(96.61668,169.35544) scale(0.20958,0.20958)" font-size="40" xml:space="preserve" fill="#000000" fill-rule="nonzero" stroke="#ffffff" stroke-width="0" stroke-linecap="butt" stroke-linejoin="miter" stroke-miterlimit="10" stroke-dasharray="" stroke-dashoffset="0" font-family="Sans Serif" font-weight="normal" text-anchor="start" style="mix-blend-mode: normal"><tspan x="0" dy="0">IA2 driver by @bambus80</tspan><tspan x="0" dy="48px">Ported to ScratchOS by charsarg</tspan><tspan x="0" dy="48px"> </tspan><tspan x="0" dy="48px">Compatible with InterApp</tspan><tspan x="0" dy="48px">v1 and v2 apps</tspan></text><g><path d="M116.5873,140.64468c0,0 3.313,-2.57143 9,-2.57143c6.25834,0 9.42857,2.57143 9.42857,2.57143" fill="none" stroke="url(#color-1)" stroke-width="5" stroke-linecap="round"/><text transform="translate(127.58351,155.60337) scale(0.20458,0.20458)" font-size="40" xml:space="preserve" fill="#ff5a8a" fill-rule="nonzero" stroke="#ff5a8a" stroke-width="4" stroke-linecap="butt" stroke-linejoin="miter" stroke-miterlimit="10" stroke-dasharray="" stroke-dashoffset="0" font-family="Sans Serif" font-weight="normal" text-anchor="start" style="mix-blend-mode: normal"><tspan x="0" dy="0">2</tspan></text><path d="M115.30158,153.64468v-25.57143c0,0 -0.4651,-11.39479 10.28572,-11.42857c11.5825,-0.03639 10.85714,11.42857 10.85714,11.42857v25.57143" fill="none" stroke="url(#color-2)" stroke-width="5" stroke-linecap="round"/><path d="M101.44444,153.64468c0,0 4.9493,-9.24248 4.99893,-17.57144c0.01636,-2.7448 0.05912,-5.89653 0.14393,-8.2857c0.2765,-7.78961 3.71027,-14.13399 8.94759,-17.29497" fill="none" stroke="url(#color-3)" stroke-width="5" stroke-linecap="round"/><path d="M119.51587,107.57325c0,-1.45961 1.18325,-2.64286 2.64286,-2.64286c1.45961,0 2.64286,1.18325 2.64286,2.64286c0,1.45961 -1.18325,2.64286 -2.64286,2.64286c-1.45961,0 -2.64286,-1.18325 -2.64286,-2.64286z" fill="#eb99ff" stroke="none" stroke-width="0.5" stroke-linecap="butt"/></g><text transform="translate(96.61668,269.85544) scale(0.20958,0.20958)" font-size="40" xml:space="preserve" fill="#000000" fill-rule="nonzero" stroke="#ffffff" stroke-width="0" stroke-linecap="butt" stroke-linejoin="miter" stroke-miterlimit="10" stroke-dasharray="" stroke-dashoffset="0" font-family="Sans Serif" font-weight="normal" text-anchor="start" style="mix-blend-mode: normal"><tspan x="0" dy="0">For support, make sure to provide</tspan><tspan x="0" dy="48px">the report shown on the right.</tspan></text></g></g></svg>