<svg version="1.1" xmlns="http://www.w3.org/2000/svg" xmlns:xlink="http://www.w3.org/1999/xlink" width="114.4315" height="78.33617" viewBox="0,0,114.4315,78.33617"><defs><linearGradient x1="213.55157" y1="179.19229" x2="213.55157" y2="184.19229" gradientUnits="userSpaceOnUse" id="color-1"><stop offset="0" stop-color="#f37fcf"/><stop offset="1" stop-color="#f871b4"/></linearGradient><linearGradient x1="215.55158" y1="168.26373" x2="215.55158" y2="195.97801" gradientUnits="userSpaceOnUse" id="color-2"><stop offset="0" stop-color="#ed94f5"/><stop offset="1" stop-color="#ff5a8a"/></linearGradient><linearGradient x1="204.33729" y1="154.26373" x2="204.33729" y2="194.83516" gradientUnits="userSpaceOnUse" id="color-3"><stop offset="0" stop-color="#eb99ff"/><stop offset="1" stop-color="#ff5a8a"/></linearGradient></defs><g transform="translate(-185.56476,-137.94293)"><g data-paper-data="{&quot;isPaintingLayer&quot;:true}" fill-rule="nonzero" stroke-linejoin="miter" stroke-miterlimit="10" stroke-dasharray="" stroke-dashoffset="0" style="mix-blend-mode: normal"><path d="M204.33729,182.97801c0,0 3.313,-2.57143 9,-2.57143c6.25834,0 9.42857,2.57143 9.42857,2.57143" fill="none" stroke="url(#color-1)" stroke-width="5" stroke-linecap="round"/><text transform="translate(215.3335,197.9367) scale(0.20458,0.20458)" font-size="40" xml:space="preserve" fill="#ff5a8a" fill-rule="nonzero" stroke="#ff5a8a" stroke-width="4" stroke-linecap="butt" stroke-linejoin="miter" stroke-miterlimit="10" stroke-dasharray="" stroke-dashoffset="0" font-family="Sans Serif" font-weight="normal" text-anchor="start" style="mix-blend-mode: normal"><tspan x="0" dy="0">2</tspan></text><path d="M203.05158,195.97801v-25.57143c0,0 -0.4651,-11.39479 10.28572,-11.42857c11.5825,-0.03639 10.85714,11.42857 10.85714,11.42857v25.57143" fill="none" stroke="url(#color-2)" stroke-width="5" stroke-linecap="round"/><path d="M189.19443,195.97801c0,0 4.9493,-9.24248 4.99893,-17.57144c0.01636,-2.7448 0.05912,-5.89653 0.14393,-8.2857c0.2765,-7.78961 3.71027,-14.13399 8.94759,-17.29497" fill="none" stroke="url(#color-3)" stroke-width="5" stroke-linecap="round"/><path d="M207.26586,149.90658c0,-1.45961 1.18325,-2.64286 2.64286,-2.64286c1.45961,0 2.64286,1.18325 2.64286,2.64286c0,1.45961 -1.18325,2.64286 -2.64286,2.64286c-1.45961,0 -2.64286,-1.18325 -2.64286,-2.64286z" fill="#eb99ff" stroke="none" stroke-width="0.5" stroke-linecap="butt"/><text transform="translate(185.82542,212.13746) scale(0.34755,0.34755)" font-size="40" xml:space="preserve" fill="#ff5a8a" fill-rule="nonzero" stroke="#ff5a8a" stroke-width="1.5" stroke-linecap="butt" stroke-linejoin="miter" stroke-miterlimit="10" stroke-dasharray="" stroke-dashoffset="0" font-family="Sans Serif" font-weight="normal" text-anchor="start" style="mix-blend-mode: normal"><tspan x="0" dy="0">Driver</tspan></text><text transform="translate(230.39519,184.53251) scale(0.36436,0.36436)" font-size="40" xml:space="preserve" fill="#ffffff" fill-rule="nonzero" stroke="none" stroke-width="1" stroke-linecap="butt" stroke-linejoin="miter" stroke-miterlimit="10" stroke-dasharray="" stroke-dashoffset="0" font-family="Sans Serif" font-weight="normal" text-anchor="start" style="mix-blend-mode: normal"><tspan x="0" dy="0">Generic</tspan></text><text transform="translate(225.76814,167.63873) scale(0.68371,0.68371)" font-size="40" xml:space="preserve" fill="#eb99ff" fill-rule="nonzero" stroke="#eb99ff" stroke-width="2" stroke-linecap="butt" stroke-linejoin="miter" stroke-miterlimit="10" stroke-dasharray="" stroke-dashoffset="0" font-family="Sans Serif" font-weight="normal" text-anchor="start" style="mix-blend-mode: normal"><tspan x="0" dy="0">Tier 3</tspan></text></g></g></svg>