<svg version="1.1" xmlns="http://www.w3.org/2000/svg" xmlns:xlink="http://www.w3.org/1999/xlink" width="189.14556" height="150.5051" viewBox="0,0,189.14556,150.5051"><g transform="translate(-145.8788,-104.17781)"><g data-paper-data="{&quot;isPaintingLayer&quot;:true}" fill-rule="nonzero" stroke-width="2" stroke-linecap="round" stroke-linejoin="miter" stroke-miterlimit="10" stroke-dasharray="" stroke-dashoffset="0" style="mix-blend-mode: normal"><path d="M232.1644,137.221l-85.19417,2.18447l-0.09135,-5.45743c0,0 0.13464,-13.34475 0.11917,-15.40453c-0.04742,-6.31431 10.573,-13.40768 15.44287,-13.36551c3.12553,0.02706 49.57785,0.00417 49.57785,0.00417l20.87379,20.38835z" fill="#ffa000" stroke="#ffa000"/><path d="M162.375,124.625c8.11157,-0.74184 144.0751,0.17501 146.67814,0.03103c8.91138,-0.4929 21.33272,-1.05627 23.82186,13.71897c1.62327,9.63558 1.30465,25.22886 1.14939,43.38094c-0.15236,17.81293 -0.1214,38.08993 -0.64939,57.61906c-0.18043,6.67362 -6.92467,14.23508 -11.75,14.25c-13.16112,0.04068 -159.84119,1.19708 -163.29801,0.10441c-5.47981,-1.73212 -10.2015,-10.28568 -10.90509,-16.11455c-0.19346,-1.60271 -0.60829,-29.18025 -0.34168,-54.16686c0.091,-8.52823 -0.23659,-17.0532 -0.37229,-26.12607c-0.0901,-6.02368 -0.25269,-12.60303 0.41707,-18.44694c1.03805,-9.05731 7.13843,-13.50816 15.25,-14.25z" fill="#ffca28" stroke="#ffca28"/></g></g></svg>