<svg version="1.1" xmlns="http://www.w3.org/2000/svg" xmlns:xlink="http://www.w3.org/1999/xlink" width="17.78571" height="17.78571" viewBox="0,0,17.78571,17.78571"><g transform="translate(-231.10714,-171.10714)"><g data-paper-data="{&quot;isPaintingLayer&quot;:true}" fill-rule="nonzero" stroke-linejoin="miter" stroke-miterlimit="10" stroke-dasharray="" stroke-dashoffset="0" style="mix-blend-mode: normal"><path d="M233.24889,180c0,-3.72853 3.02257,-6.75111 6.75111,-6.75111c3.72853,0 6.75111,3.02257 6.75111,6.75111c0,3.72853 -3.02257,6.75111 -6.75111,6.75111c-3.72853,0 -6.75111,-3.02257 -6.75111,-6.75111z" fill="#ef813c" stroke="none" stroke-width="0" stroke-linecap="butt"/><path d="M240.0505,182.65098l-3.10148,-5.10196" fill="none" stroke="#ffeee5" stroke-width="1.5" stroke-linecap="round"/><path d="M240.04951,182.65097l3.10148,-5.10196" data-paper-data="{&quot;index&quot;:null}" fill="none" stroke="#ffeee5" stroke-width="1.5" stroke-linecap="round"/><path d="M231.10715,180c0,-4.91139 3.98146,-8.89285 8.89285,-8.89285c4.91139,0 8.89285,3.98146 8.89285,8.89285c0,4.91139 -3.98146,8.89285 -8.89285,8.89285c-4.91139,0 -8.89285,-3.98146 -8.89285,-8.89285z" fill="none" stroke="none" stroke-width="none" stroke-linecap="butt"/></g></g></svg>