<svg version="1.1" xmlns="http://www.w3.org/2000/svg" xmlns:xlink="http://www.w3.org/1999/xlink" width="17.78571" height="17.78571" viewBox="0,0,17.78571,17.78571"><g transform="translate(-231.10714,-171.10714)"><g data-paper-data="{&quot;isPaintingLayer&quot;:true}" fill-rule="nonzero" stroke-linejoin="miter" stroke-miterlimit="10" stroke-dasharray="" stroke-dashoffset="0" style="mix-blend-mode: normal"><path d="M233.24889,180c0,-3.72853 3.02257,-6.75111 6.75111,-6.75111c3.72853,0 6.75111,3.02257 6.75111,6.75111c0,3.72853 -3.02257,6.75111 -6.75111,6.75111c-3.72853,0 -6.75111,-3.02257 -6.75111,-6.75111z" fill="#cc3434" stroke="none" stroke-width="0" stroke-linecap="butt"/><path d="M236.94901,176.94901l6.10196,6.10196" fill="none" stroke="#ffd9d9" stroke-width="1.5" stroke-linecap="round"/><path d="M243.05099,176.94901l-6.10196,6.10196" data-paper-data="{&quot;index&quot;:null}" fill="none" stroke="#ffd9d9" stroke-width="1.5" stroke-linecap="round"/><path d="M231.10714,180c0,-4.91139 3.98147,-8.89286 8.89286,-8.89286c4.91139,0 8.89286,3.98147 8.89286,8.89286c0,4.91139 -3.98147,8.89286 -8.89286,8.89286c-4.91139,0 -8.89286,-3.98147 -8.89286,-8.89286z" fill="none" stroke="none" stroke-width="none" stroke-linecap="butt"/></g></g></svg>